<svg width="72" height="57" viewBox="0 0 72 57" fill="none" xmlns="http://www.w3.org/2000/svg">
<path fill-rule="evenodd" clip-rule="evenodd" d="M45.5661 0.59994C39.129 -0.19998 32.8713 -0.19998 26.4342 0.59994C23.7643 0.931731 21.5411 2.47293 20.3628 4.57262L18.0586 8.67858C16.87 8.76579 15.6901 8.85508 14.522 8.94347L14.5163 8.9439L13.7625 9.00094C7.54313 9.47091 2.29912 13.7084 1.34294 19.3582C0.659345 23.3975 0 27.7403 0 32.2248C0 36.7093 0.659345 41.0521 1.34295 45.0912C2.29912 50.7413 7.54313 54.9789 13.7625 55.449L14.5165 55.5055L14.574 55.5102C21.3913 56.026 28.5981 56.5714 36 56.5714C43.4018 56.5714 50.6086 56.026 57.4257 55.5102L57.4838 55.5055L58.2372 55.449C64.457 54.9789 69.7006 50.7413 70.6572 45.0912C71.3407 41.0521 72 36.7093 72 32.2248C72 27.7403 71.3407 23.3975 70.6572 19.3582C69.7006 13.7084 64.457 9.47091 58.2372 9.00094L57.4838 8.9439C56.3153 8.85546 55.1304 8.76584 53.9419 8.67862L51.6374 4.57262C50.4592 2.47293 48.236 0.931731 45.5661 0.59994ZM27.2978 6.43938C33.1618 5.7107 38.8385 5.7107 44.7025 6.43938C45.1803 6.49874 45.6505 6.78631 45.921 7.2683L49.0451 12.8352C49.5556 13.7448 50.5442 14.3466 51.6569 14.4251C53.4338 14.5503 55.1967 14.6838 56.9546 14.8168L57.709 14.8739C61.1352 15.1328 63.829 17.4525 64.3042 20.2616C64.9836 24.2742 65.5714 28.2301 65.5714 32.2248C65.5714 36.2195 64.9836 40.1754 64.3042 44.1879C63.829 46.9972 61.1352 49.3171 57.709 49.5759L56.9546 49.6329C50.0826 50.1529 43.1158 50.6786 36 50.6786C28.8842 50.6786 21.9175 50.1529 15.0454 49.6329L14.2907 49.5759C10.8646 49.3171 8.17097 46.9972 7.69551 44.1879C7.01645 40.1754 6.42857 36.2195 6.42857 32.2248C6.42857 28.2301 7.01645 24.2742 7.69551 20.2616C8.17092 17.4525 10.8646 15.1328 14.2907 14.8739L15.0452 14.8168C16.8032 14.6837 18.5666 14.5503 20.3434 14.4251C21.4561 14.3466 22.4448 13.7448 22.9552 12.8351L26.0793 7.2683C26.3498 6.78631 26.8201 6.49874 27.2978 6.43938ZM26.6941 22.7854C28.9297 20.7438 32.1327 19.7471 35.9997 19.7471C39.8667 19.7471 43.0697 20.7438 45.3053 22.7854C47.5416 24.8276 48.6343 27.7551 48.6343 31.2897C48.6343 34.8243 47.5416 37.7518 45.3053 39.794C43.0697 41.8356 39.8667 42.8321 35.9997 42.8321C32.1327 42.8321 28.9297 41.8356 26.6941 39.794C24.4578 37.7518 23.3651 34.8243 23.3651 31.2897C23.3651 27.7551 24.4578 24.8276 26.6941 22.7854Z" fill="#000"/>
</svg>
