<svg width="75" height="75" viewBox="0 0 75 75" fill="none" xmlns="http://www.w3.org/2000/svg">
<path fill-rule="evenodd" clip-rule="evenodd" d="M45.0312 7.16563C48.0583 7.91528 50.9554 9.11623 53.625 10.7281C54.1602 11.0511 54.5863 11.5272 54.8481 12.0949C55.11 12.6625 55.1955 13.2957 55.0938 13.9125C54.7406 16.0656 55.2781 17.7125 56.2813 18.7188C57.2875 19.725 58.9375 20.2594 61.0875 19.9063C61.7048 19.8038 62.3386 19.889 62.9069 20.1509C63.4752 20.4128 63.9518 20.8392 64.275 21.375C65.8868 24.0447 67.0878 26.9417 67.8375 29.9688C67.9884 30.5761 67.9535 31.2147 67.7373 31.8019C67.5212 32.3892 67.1337 32.898 66.625 33.2625C64.85 34.5344 64.0625 36.075 64.0625 37.5C64.0625 38.925 64.85 40.4688 66.625 41.7406C67.1331 42.1049 67.5202 42.6132 67.7364 43.1998C67.9525 43.7864 67.9877 44.4244 67.8375 45.0313C67.0878 48.0583 65.8869 50.9553 64.275 53.625C63.9518 54.1608 63.4752 54.5872 62.9069 54.8491C62.3386 55.111 61.7048 55.1962 61.0875 55.0938C58.9344 54.7406 57.2906 55.2781 56.2844 56.2813C55.2781 57.2875 54.7406 58.9375 55.0969 61.0875C55.1993 61.7048 55.1141 62.3386 54.8522 62.9069C54.5904 63.4752 54.1639 63.9518 53.6281 64.275C50.9565 65.8874 48.0573 67.0884 45.0281 67.8375C44.4213 67.9877 43.7833 67.9525 43.1967 67.7364C42.6101 67.5202 42.1018 67.1331 41.7375 66.625C40.4688 64.85 38.925 64.0625 37.5 64.0625C36.0781 64.0625 34.5313 64.85 33.2625 66.625C32.8982 67.1331 32.3899 67.5202 31.8033 67.7364C31.2167 67.9525 30.5787 67.9877 29.9719 67.8375C26.9427 67.0884 24.0435 65.8874 21.3719 64.275C20.8361 63.9518 20.4096 63.4752 20.1478 62.9069C19.8859 62.3386 19.8007 61.7048 19.9031 61.0875C20.2594 58.9375 19.725 57.2906 18.7156 56.2844C17.7125 55.2781 16.0656 54.7406 13.9125 55.0969C13.2957 55.1987 12.6625 55.1131 12.0949 54.8513C11.5272 54.5894 11.0511 54.1634 10.7281 53.6281C9.11569 50.9565 7.91473 48.0574 7.16563 45.0281C7.01539 44.4213 7.05063 43.7833 7.26678 43.1967C7.48293 42.6101 7.87006 42.1018 8.37813 41.7375C10.15 40.4688 10.9406 38.925 10.9406 37.5C10.9406 36.0781 10.15 34.5313 8.37813 33.2625C7.87006 32.8982 7.48293 32.3899 7.26678 31.8033C7.05063 31.2167 7.01539 30.5787 7.16563 29.9719C7.91498 26.9437 9.11594 24.0456 10.7281 21.375C11.0511 20.8398 11.5272 20.4137 12.0949 20.1519C12.6625 19.89 13.2957 19.8045 13.9125 19.9063C16.0656 20.2594 17.7125 19.725 18.7188 18.7188C19.725 17.7125 20.2594 16.0625 19.9062 13.9125C19.8045 13.2957 19.89 12.6625 20.1519 12.0949C20.4137 11.5272 20.8398 11.0511 21.375 10.7281C24.0447 9.11627 26.9417 7.91532 29.9688 7.16563C30.5761 7.01472 31.2147 7.04961 31.8019 7.26579C32.3892 7.48197 32.898 7.86947 33.2625 8.37813C34.5344 10.15 36.075 10.9406 37.5 10.9406C38.925 10.9406 40.4688 10.15 41.7406 8.37813C42.1049 7.87006 42.6132 7.48293 43.1998 7.26678C43.7864 7.05063 44.4244 7.01539 45.0312 7.16563ZM45.35 13.7594C43.2969 15.8125 40.6 17.1875 37.5 17.1875C34.4 17.1875 31.7031 15.8156 29.65 13.7563C28.4877 14.1408 27.3554 14.6109 26.2625 15.1625C26.2656 18.0688 25.3281 20.9438 23.1375 23.1375C20.9469 25.3281 18.0688 26.2656 15.1625 26.2625C14.6125 27.35 14.1438 28.4813 13.7563 29.65C15.8156 31.7031 17.1875 34.4 17.1875 37.5C17.1875 40.6 15.8156 43.2969 13.7563 45.35C14.1438 46.5188 14.6156 47.6531 15.1625 48.7406C18.0688 48.7344 20.9437 49.6719 23.1375 51.8656C25.3281 54.0531 26.2656 56.9313 26.2625 59.8375C27.3469 60.3875 28.4813 60.8563 29.65 61.2438C31.7031 59.1844 34.4 57.8125 37.5 57.8125C40.6 57.8125 43.2969 59.1875 45.35 61.2438C46.5134 60.8593 47.6467 60.3893 48.7406 59.8375C48.7344 56.9313 49.6719 54.0563 51.8656 51.8625C54.0531 49.6719 56.9313 48.7375 59.8375 48.7375C60.3875 47.6531 60.8562 46.5188 61.2437 45.35C59.1844 43.2969 57.8125 40.6 57.8125 37.5C57.8125 34.4 59.1875 31.7031 61.2437 29.65C60.8592 28.4877 60.3892 27.3554 59.8375 26.2625C56.9313 26.2656 54.0563 25.3281 51.8625 23.1375C49.6719 20.9469 48.7375 18.0688 48.7375 15.1625C47.6446 14.6109 46.5123 14.144 45.35 13.7594ZM37.5 25C40.8152 25 43.9946 26.317 46.3388 28.6612C48.683 31.0054 50 34.1848 50 37.5C50 40.8152 48.683 43.9946 46.3388 46.3388C43.9946 48.683 40.8152 50 37.5 50C34.1848 50 31.0054 48.683 28.6612 46.3388C26.317 43.9946 25 40.8152 25 37.5C25 34.1848 26.317 31.0054 28.6612 28.6612C31.0054 26.317 34.1848 25 37.5 25ZM37.5 31.25C35.8424 31.25 34.2527 31.9085 33.0806 33.0806C31.9085 34.2527 31.25 35.8424 31.25 37.5C31.25 39.1576 31.9085 40.7473 33.0806 41.9194C34.2527 43.0915 35.8424 43.75 37.5 43.75C39.1576 43.75 40.7473 43.0915 41.9194 41.9194C43.0915 40.7473 43.75 39.1576 43.75 37.5C43.75 35.8424 43.0915 34.2527 41.9194 33.0806C40.7473 31.9085 39.1576 31.25 37.5 31.25Z" fill="#000"/>
</svg>
