<svg width="71" height="55" viewBox="0 0 71 55" fill="none" xmlns="http://www.w3.org/2000/svg">
<path d="M69.2122 5.18618C68.2626 4.56404 67.0249 4.34376 65.8566 4.58904L46.3917 8.67598L26.8258 0.458279C25.99 0.10702 25.0322 0.0186032 24.1256 0.208997L3.25527 4.59177C1.51071 4.95407 0.284142 6.26793 0.28125 7.7775V47.2225C0.281643 49.3607 2.67387 50.9295 5.1434 50.411L24.6083 46.324L44.1742 54.5417C45.01 54.893 45.9678 54.9814 46.8744 54.791L67.7447 50.4082C69.4893 50.0459 70.7159 48.7321 70.7188 47.2225V7.7775C70.7185 6.76492 70.1627 5.80894 69.2122 5.18618ZM28.978 8.71432L42.022 14.1928V46.2857L28.978 40.8072V8.71432ZM8.10765 10.3579L21.1516 7.61864V40.2731L8.10765 43.0123V10.3579ZM62.8924 44.6558L49.8484 47.3951V14.7269L62.8924 11.9877V44.6558Z" fill="#000"/>
</svg>
